[color=#C71585]Insidious 2011 Dvdrip - PRESTiGE[/color]

[img]http://leetleech.org/images/13530174178084517428.png[/img]

File size                        : 701 MiB
Duration                         : 1h 42mn
Overall bit rate                 : 953 Kbps


Video
ID                               : 0
Format                           : MPEG-4 Visual
Format profile                   : Advanced Simple@L5
Format settings, BVOP            : 2
Format settings, QPel            : No
Format settings, GMC             : No warppoints
Format settings, Matrix          : Default (H.263)
Muxing mode                      : Packed bitstream
Codec ID                         : XVID
Codec ID/Hint                    : XviD
Duration                         : 1h 42mn
Bit rate                         : 816 Kbps
Width                            : 720 pixels
Height                           : 304 pixels
Display aspect ratio             : 2.35:1
Frame rate                       : 23.976 fps
Color space                      : YUV
Chroma subsampling               : 4:2:0
Bit depth                        : 8 bits
Scan type                        : Progressive
Compression mode                 : Lossy
Bits/(Pixel*Frame)               : 0.155
Stream size                      : 600 MiB (86%)
Writing library                  : XviD 1.2.0.dev47 (UTC 2006-11-01)

Audio
ID                               : 1
Format                           : MPEG Audio
Format version                   : Version 1
Format profile                   : Layer 3
Mode                             : Joint stereo
Codec ID                         : 55
Codec ID/Hint                    : MP3
Duration                         : 1h 42mn
Bit rate mode                    : Constant
Bit rate                         : 128 Kbps
Channel(s)                       : 2 channels
Sampling rate                    : 44.1 KHz
Compression mode                 : Lossy
Delay relative to video          : 26ms
Stream size                      : 94.2 MiB (13%)
Alignment                        : Split accross interleaves
Interleave, duration             : 42 ms (1.00 video frame)
Interleave, preload duration     : 500 ms

Source - MPTDVD cheers guys 
encoder - Bigguy
[img]http://leetleech.org/images/71127130776089801699.png[/img]

A family looks to prevent evil spirits from trapping their comatose child 
in a realm called The Further.


[img]http://leetleech.org/images/10125376355615316589.png[/img]
 
http://www.leetleech.org/images/26288028383972972403.png 
http://www.leetleech.org/images/02009839111953160042.png 
http://www.leetleech.org/images/72917772386249905343.png 
http://www.leetleech.org/images/69156006598818244570.png

Greets going out to

| Bigguy | DiLLoN | Thorn | Flawl3ss | Imagine | CTFX | BMB | akosipalos | HiTM4N | whitestag13 |


[img]http://www.leetleech.org/images/49954320876998403493.png[/img]
    Info hash: 57EEFADFA1BBE1957AE5F3714BDDC8060C7E0EA0
[code]Tracker list

    http://nemesis.1337x.org/announce
    http://exodus.1337x.org/announce
    http://genesis.1337x.org:1337/announce
    http://nyaatorrents.info:3277/announce [/code]
 
http://torrent-stats.info/f371/1589dd595.png